{"glyphs":{"0":{"ha":1253,"x_min":0,"x_max":1758,"o":"m 248 399 l 426 684 q 1074 1082 675 1082 l 1359 1082 q 1508 684 1758 1082 l 1331 399 q 684 0 1082 0 l 399 0 q 248 399 0 0 m 612 342 q 654 228 540 228 l 711 228 q 897 342 825 228 l 1146 741 q 1103 854 1217 854 l 1046 854 q 861 741 932 854 l 612 342 z "},"1":{"ha":1082,"x_min":513,"x_max":1587,"o":"m 513 0 l 1046 854 l 533 854 l 675 1082 l 1587 1082 l 911 0 l 513 0 z "},"2":{"ha":1253,"x_min":0,"x_max":1637,"o":"m 1430 1082 q 1600 985 1564 1082 q 1553 754 1637 888 q 1312 524 1469 620 q 1020 427 1154 427 l 779 427 q 612 342 665 427 l 540 228 l 1223 228 l 1082 0 l 0 0 l 205 328 q 446 559 289 463 q 738 656 604 656 l 979 656 q 1146 741 1093 656 q 1103 854 1217 854 l 533 854 l 675 1082 l 1430 1082 z "},"3":{"ha":1253,"x_min":0,"x_max":1637,"o":"m 1430 1082 q 1600 985 1564 1082 q 1553 754 1637 888 q 1341 543 1477 633 q 1289 331 1364 452 q 1046 98 1204 197 q 754 0 888 0 l 0 0 l 144 231 l 713 231 q 898 345 827 231 q 863 427 949 427 l 437 427 l 582 658 l 1008 658 q 1146 741 1100 667 q 1103 854 1217 854 l 533 854 l 675 1082 l 1430 1082 z "},"4":{"ha":1253,"x_min":106,"x_max":1587,"o":"m 106 171 l 248 399 l 960 1082 l 1587 1082 l 1160 399 l 1331 399 l 1188 171 l 1017 171 l 911 0 l 513 0 l 618 171 l 106 171 m 647 399 l 761 399 l 1046 854 l 647 399 z "},"5":{"ha":1253,"x_min":0,"x_max":1758,"o":"m 754 0 l 0 0 l 141 228 l 711 228 q 897 342 825 228 q 836 426 949 426 l 266 426 l 675 1082 l 1758 1082 l 1615 854 l 932 854 l 807 655 l 1162 655 q 1334 559 1297 655 q 1287 328 1371 463 q 1046 97 1203 194 q 754 0 888 0 z "},"6":{"ha":1196,"x_min":126,"x_max":1301,"o":"m 1103 627 q 1265 534 1230 627 q 1221 313 1301 441 q 989 92 1139 184 q 712 0 840 0 l 313 0 q 156 76 186 0 q 141 228 126 152 l 675 1082 l 1074 1082 l 789 627 l 1103 627 m 540 228 l 654 228 q 822 315 768 228 q 761 399 875 399 l 647 399 l 540 228 z "},"7":{"ha":1196,"x_min":426,"x_max":1701,"o":"m 426 684 l 675 1082 l 1701 1082 l 1025 0 l 627 0 l 1160 854 l 932 854 l 825 684 l 426 684 z "},"8":{"ha":1253,"x_min":122,"x_max":1637,"o":"m 1430 1082 q 1600 985 1564 1082 q 1553 754 1637 888 q 1341 543 1477 633 q 1289 331 1364 452 q 1046 98 1204 197 q 754 0 888 0 l 328 0 q 158 98 194 0 q 206 331 122 197 q 416 543 282 452 q 471 754 395 633 q 712 985 555 888 q 1004 1082 869 1082 l 1430 1082 m 888 328 q 830 418 944 418 l 773 418 q 604 328 659 418 q 656 231 543 231 l 713 231 q 888 328 827 231 m 1156 757 q 1103 854 1217 854 l 1046 854 q 871 757 932 854 q 924 658 810 658 l 981 658 q 1156 757 1095 658 z "},"9":{"ha":1196,"x_min":400,"x_max":1573,"o":"m 597 456 q 435 549 469 456 q 480 769 400 642 q 711 990 560 898 q 989 1082 861 1082 l 1388 1082 q 1544 1006 1515 1082 q 1558 854 1573 930 l 1025 0 l 627 0 l 910 456 l 597 456 m 1160 854 l 1046 854 q 878 768 932 854 q 939 684 825 684 l 1053 684 l 1160 854 z "}," ":{"ha":694,"x_min":0,"x_max":0,"o":""},"!":{"ha":684,"x_min":57,"x_max":1188,"o":"m 270 342 l 533 854 l 675 1082 l 1188 1082 l 1046 854 l 669 342 l 270 342 m 57 0 l 198 228 l 597 228 l 456 0 l 57 0 z "},"\"":{"ha":684,"x_min":519,"x_max":1146,"o":"m 605 968 q 688 1048 633 1015 q 789 1082 742 1082 q 848 1048 836 1082 q 833 968 861 1015 q 736 859 803 921 q 519 741 669 798 q 647 854 612 798 q 587 888 600 854 q 605 968 575 921 m 890 968 q 972 1048 918 1015 q 1074 1082 1027 1082 q 1133 1048 1120 1082 q 1118 968 1146 1015 q 1021 859 1088 921 q 804 741 954 798 q 932 854 897 798 q 872 888 884 854 q 890 968 860 921 z "},"#":{"ha":1253,"x_min":106,"x_max":1651,"o":"m 171 0 l 277 171 l 106 171 l 213 342 l 384 342 l 633 741 l 463 741 l 568 911 l 739 911 l 846 1082 l 1131 1082 l 1024 911 l 1195 911 l 1302 1082 l 1587 1082 l 1480 911 l 1651 911 l 1545 741 l 1374 741 l 1124 342 l 1295 342 l 1188 171 l 1017 171 l 911 0 l 627 0 l 732 171 l 562 171 l 456 0 l 171 0 m 918 741 l 669 342 l 840 342 l 1089 741 l 918 741 z "},"$":{"ha":1310,"x_min":106,"x_max":1708,"o":"m 1602 741 l 1374 741 l 1302 627 q 1421 559 1397 627 q 1388 399 1446 492 q 1220 237 1328 304 q 1017 171 1112 171 l 911 0 l 627 0 l 732 171 l 618 171 l 513 0 l 228 0 l 334 171 l 106 171 l 213 342 l 441 342 l 511 456 q 393 522 418 456 q 426 684 368 589 q 594 844 486 777 q 796 911 703 911 l 903 1082 l 1188 1082 l 1081 911 l 1195 911 l 1302 1082 l 1587 1082 l 1480 911 l 1708 911 l 1602 741 m 1089 741 l 975 741 l 903 627 l 1017 627 l 1089 741 m 726 342 l 840 342 l 910 456 l 796 456 l 726 342 z "},"%":{"ha":1310,"x_min":0,"x_max":1815,"o":"m 0 0 l 1416 1082 l 1815 1082 l 399 0 l 0 0 m 533 854 q 700 1015 591 948 q 903 1082 808 1082 q 1022 1015 997 1082 q 989 854 1047 948 q 821 693 929 760 q 618 627 712 627 q 498 693 524 627 q 533 854 473 760 m 704 854 q 695 814 689 830 q 726 798 701 798 q 776 814 749 798 q 818 854 803 830 q 826 895 833 878 q 796 911 819 911 q 745 895 772 911 q 704 854 719 878 m 825 228 q 992 389 884 321 q 1195 456 1100 456 q 1314 389 1289 456 q 1280 228 1340 321 q 1114 66 1222 133 q 911 0 1005 0 q 791 66 817 0 q 825 228 766 133 m 996 228 q 987 187 981 203 q 1017 171 993 171 q 1067 187 1040 171 q 1109 228 1095 203 q 1118 268 1124 251 q 1089 285 1112 285 q 1038 268 1065 285 q 996 228 1010 251 z "},"&":{"ha":1538,"x_min":121,"x_max":1793,"o":"m 1175 1082 l 1473 1082 l 1331 854 l 1217 854 q 1032 741 1103 854 q 1109 684 979 656 l 967 456 l 796 456 q 612 342 665 427 q 654 228 540 228 l 939 228 l 1223 684 l 1793 684 l 1651 456 l 1480 456 l 1196 0 l 328 0 q 157 97 194 0 q 205 328 121 194 q 404 534 289 463 q 587 629 519 605 q 642 754 600 686 q 883 985 726 888 q 1175 1082 1040 1082 z "},"'":{"ha":399,"x_min":519,"x_max":861,"o":"m 605 968 q 688 1048 633 1015 q 789 1082 742 1082 q 848 1048 836 1082 q 833 968 861 1015 q 736 859 803 921 q 519 741 669 798 q 647 854 612 798 q 587 888 600 854 q 605 968 575 921 z "},"(":{"ha":684,"x_min":114,"x_max":1188,"o":"m 114 0 q 789 1082 241 570 l 1188 1082 q 513 0 640 570 l 114 0 z "},")":{"ha":694,"x_min":0,"x_max":1074,"o":"m 399 0 l 0 0 q 675 1082 583 570 l 1074 1082 q 399 0 982 570 z "},"*":{"ha":963,"x_min":148,"x_max":1325,"o":"m 754 570 l 853 911 l 890 968 q 972 1048 918 1015 q 1074 1082 1027 1082 q 1133 1048 1120 1082 q 1118 968 1146 1015 l 1081 911 l 754 570 m 719 513 l 618 171 l 583 114 q 500 34 555 68 q 399 0 445 0 q 339 34 351 0 q 355 114 327 68 l 391 171 l 719 513 m 811 570 l 1108 854 q 1165 897 1124 871 q 1253 922 1206 922 q 1312 888 1299 922 q 1297 808 1325 854 q 1212 728 1267 761 q 1109 684 1157 694 l 811 570 m 783 524 l 939 410 q 986 366 972 399 q 970 285 1000 332 q 885 205 940 239 q 784 171 830 171 q 728 197 736 171 q 723 239 719 222 l 783 524 m 692 570 l 534 684 q 488 728 500 694 q 505 808 475 761 q 588 888 533 854 q 689 922 643 922 q 746 897 736 922 q 750 854 755 871 l 692 570 m 663 524 l 365 239 q 309 197 350 222 q 220 171 267 171 q 161 205 174 171 q 178 285 148 239 q 262 366 208 332 q 363 410 316 399 l 663 524 z "},"+":{"ha":1139,"x_min":248,"x_max":1359,"o":"m 248 399 l 391 627 l 675 627 l 818 854 l 1217 854 l 1074 627 l 1359 627 l 1217 399 l 932 399 l 789 171 l 391 171 l 533 399 l 248 399 z "},",":{"ha":399,"x_min":-57,"x_max":285,"o":"m 27 114 q 111 194 57 160 q 213 228 165 228 q 272 194 259 228 q 255 114 285 160 q 159 5 227 66 q -57 -114 92 -57 q 71 0 35 -57 q 11 33 23 0 q 27 114 -1 66 z "},"-":{"ha":1139,"x_min":248,"x_max":1359,"o":"m 248 399 l 391 627 l 1359 627 l 1217 399 l 248 399 z "},".":{"ha":399,"x_min":41,"x_max":327,"o":"m 71 114 q 153 194 99 160 q 255 228 208 228 q 314 194 301 228 q 298 114 327 160 q 214 33 269 66 q 114 0 160 0 q 54 33 66 0 q 71 114 41 66 z "},"/":{"ha":1310,"x_min":0,"x_max":1815,"o":"m 0 0 l 1416 1082 l 1815 1082 l 399 0 l 0 0 z "},":":{"ha":399,"x_min":41,"x_max":612,"o":"m 355 570 q 438 650 384 616 q 540 684 492 684 q 599 650 586 684 q 583 570 612 616 q 498 489 553 522 q 397 456 444 456 q 338 489 350 456 q 355 570 326 522 m 71 114 q 153 194 99 160 q 255 228 208 228 q 314 194 301 228 q 298 114 327 160 q 214 33 269 66 q 114 0 160 0 q 54 33 66 0 q 71 114 41 66 z "},";":{"ha":399,"x_min":57,"x_max":684,"o":"m 141 114 q 225 194 171 160 q 327 228 279 228 q 386 194 373 228 q 369 114 399 160 q 273 5 340 66 q 57 -114 206 -57 q 184 0 149 -57 q 125 33 137 0 q 141 114 113 66 m 426 570 q 510 650 456 616 q 612 684 564 684 q 671 650 658 684 q 654 570 684 616 q 570 489 625 522 q 469 456 515 456 q 410 489 422 456 q 426 570 397 522 z "},"<":{"ha":798,"x_min":228,"x_max":1302,"o":"m 228 0 l 355 570 l 903 1082 l 1302 1082 l 754 570 l 627 0 l 228 0 z "},"=":{"ha":1139,"x_min":114,"x_max":1473,"o":"m 362 570 l 505 798 l 1473 798 l 1331 570 l 362 570 m 114 171 l 255 399 l 1223 399 l 1082 171 l 114 171 z "},">":{"ha":798,"x_min":0,"x_max":1074,"o":"m 399 0 l 0 0 l 583 570 l 675 1082 l 1074 1082 l 982 570 l 399 0 z "},"?":{"ha":1253,"x_min":228,"x_max":1637,"o":"m 1430 1082 q 1600 985 1564 1082 q 1553 754 1637 888 q 1312 524 1469 620 q 1020 427 1154 427 q 840 342 892 427 l 441 342 q 674 559 517 463 q 979 656 831 656 q 1146 741 1093 656 q 1103 854 1217 854 l 533 854 l 675 1082 l 1430 1082 m 228 0 l 369 228 l 768 228 l 627 0 l 228 0 z "},"@":{"ha":1421,"x_min":450,"x_max":1533,"o":"m 648 305 q 749 117 648 176 q 991 57 849 57 q 1232 117 1130 57 q 1335 305 1335 176 q 1267 493 1335 433 q 1164 574 1200 553 q 1021 770 1021 680 q 991 803 1021 803 q 959 770 959 803 q 811 572 959 680 q 713 493 779 553 q 648 305 648 433 m 897 933 q 924 867 897 895 q 991 840 952 840 q 1055 867 1027 840 q 1084 933 1084 895 q 1055 999 1084 970 q 991 1028 1027 1028 q 924 999 952 1028 q 897 933 897 970 m 779 293 q 798 374 779 350 q 844 397 817 397 q 891 374 872 397 q 910 293 910 350 q 891 211 910 235 q 844 187 872 187 q 798 211 817 187 q 779 293 779 235 m 789 293 q 806 219 789 240 q 844 198 822 198 q 882 219 865 198 q 899 293 899 240 q 882 366 899 345 q 844 387 865 387 q 806 366 822 387 q 789 293 789 345 m 450 541 q 609 923 450 764 q 991 1082 768 1082 q 1373 923 1214 1082 q 1533 541 1533 764 q 1373 159 1533 317 q 991 0 1214 0 q 609 159 768 0 q 450 541 450 317 m 803 285 q 814 353 803 334 q 844 372 826 372 q 872 353 860 372 q 884 285 884 334 q 872 231 884 245 q 844 217 860 217 q 814 231 826 217 q 803 285 803 245 m 1063 293 q 1082 374 1063 350 q 1128 397 1101 397 q 1176 374 1157 397 q 1195 293 1195 350 q 1176 211 1195 235 q 1128 187 1157 187 q 1082 211 1101 187 q 1063 293 1063 235 m 1074 293 q 1090 219 1074 240 q 1128 198 1107 198 q 1167 219 1150 198 q 1184 293 1184 240 q 1167 366 1184 345 q 1128 387 1150 387 q 1090 366 1107 387 q 1074 293 1074 345 m 1088 285 q 1099 353 1088 334 q 1128 372 1111 372 q 1157 353 1145 372 q 1169 285 1169 334 q 1157 231 1169 245 q 1128 217 1145 217 q 1099 231 1111 217 q 1088 285 1088 245 z "},"A":{"ha":1538,"x_min":-114,"x_max":1530,"o":"m -114 0 l 1074 1082 l 1530 1082 l 1367 0 l 968 0 l 993 171 l 472 171 l 285 0 l -114 0 m 1077 722 l 722 399 l 1028 399 l 1077 722 z "},"B":{"ha":1196,"x_min":0,"x_max":1586,"o":"m 0 0 l 568 911 l 456 1082 l 1302 1082 q 1550 989 1515 1082 q 1506 769 1586 897 q 1192 541 1424 640 q 1221 313 1301 441 q 989 92 1139 184 q 627 0 840 0 l 0 0 m 932 854 l 789 627 l 903 627 q 1089 741 1017 627 q 1046 854 1160 854 l 932 854 m 682 456 l 540 228 l 654 228 q 840 342 768 228 q 796 456 910 456 l 682 456 z "},"C":{"ha":1256,"x_min":198,"x_max":1758,"o":"m 338 541 q 734 923 476 764 q 1217 1082 993 1082 l 1758 1082 l 1615 854 l 1103 854 q 1001 821 1055 854 q 850 678 947 787 q 696 432 754 570 q 651 261 639 294 q 711 228 663 228 l 1223 228 l 1082 0 l 541 0 q 258 159 317 0 q 338 541 198 317 z "},"D":{"ha":1256,"x_min":0,"x_max":1558,"o":"m 1420 541 q 1023 159 1280 317 q 541 0 765 0 l 0 0 l 568 911 l 456 1082 l 1217 1082 q 1499 923 1440 1082 q 1420 541 1558 764 m 654 228 q 755 261 701 228 q 924 432 810 294 q 1078 678 1039 570 q 1105 821 1118 787 q 1046 854 1093 854 l 932 854 l 540 228 l 654 228 z "},"E":{"ha":1085,"x_min":0,"x_max":1587,"o":"m 0 0 l 570 911 l 456 1082 l 1587 1082 l 1444 854 l 932 854 l 807 655 l 1320 655 l 1177 427 l 665 427 l 540 228 l 1053 228 l 911 0 l 0 0 z "},"F":{"ha":1085,"x_min":0,"x_max":1587,"o":"m 0 0 l 568 911 l 456 1082 l 1587 1082 l 1444 854 l 932 854 l 807 655 l 1320 655 l 1177 427 l 665 427 l 399 0 l 0 0 z "},"G":{"ha":1367,"x_min":198,"x_max":1815,"o":"m 338 541 q 734 923 476 764 q 1217 1082 993 1082 l 1815 1082 l 1672 854 l 1103 854 q 1001 821 1055 854 q 850 678 947 787 q 696 432 754 570 q 651 261 639 294 q 711 228 663 228 l 882 228 l 1006 427 l 836 427 l 978 655 l 1548 655 l 1139 0 l 541 0 q 258 159 317 0 q 338 541 198 317 z "},"H":{"ha":1256,"x_min":0,"x_max":1758,"o":"m 0 0 l 568 911 l 456 1082 l 1074 1082 l 807 655 l 1092 655 l 1359 1082 l 1758 1082 l 1082 0 l 684 0 l 949 427 l 665 427 l 399 0 l 0 0 z "},"I":{"ha":571,"x_min":0,"x_max":1074,"o":"m 0 0 l 568 911 l 456 1082 l 1074 1082 l 399 0 l 0 0 z "},"J":{"ha":1143,"x_min":0,"x_max":1644,"o":"m 178 285 l 283 456 l 682 456 l 612 342 q 624 228 540 228 q 783 342 711 228 l 1245 1082 l 1644 1082 l 1146 285 q 684 0 968 0 l 285 0 q 178 285 0 0 z "},"K":{"ha":1312,"x_min":0,"x_max":1815,"o":"m 0 0 l 568 911 l 456 1082 l 1074 1082 l 769 594 l 1416 1082 l 1815 1082 l 1061 513 l 1139 0 l 741 0 l 673 439 l 399 0 l 0 0 z "},"L":{"ha":970,"x_min":0,"x_max":1074,"o":"m 0 0 l 568 911 l 456 1082 l 1074 1082 l 540 228 l 939 228 l 798 0 l 0 0 z "},"M":{"ha":1706,"x_min":0,"x_max":2214,"o":"m 0 0 l 568 911 l 456 1082 l 1074 1082 l 1005 378 l 1815 1082 l 2214 1082 l 1538 0 l 1139 0 l 1341 324 l 968 0 l 570 0 l 601 324 l 399 0 l 0 0 z "},"N":{"ha":1308,"x_min":0,"x_max":1815,"o":"m 0 0 l 568 911 l 456 1082 l 1074 1082 l 1104 583 l 1416 1082 l 1815 1082 l 1139 0 l 741 0 l 709 499 l 399 0 l 0 0 z "},"O":{"ha":1308,"x_min":198,"x_max":1615,"o":"m 338 541 q 734 923 476 764 q 1245 1082 993 1082 q 1556 923 1497 1082 q 1477 541 1615 764 q 1080 159 1337 317 q 570 0 822 0 q 258 159 317 0 q 338 541 198 317 m 1103 854 q 1001 821 1055 854 q 850 678 947 787 q 696 432 754 570 q 651 261 639 294 q 711 228 663 228 q 812 261 758 228 q 981 432 867 294 q 1135 678 1096 570 q 1162 821 1175 787 q 1103 854 1150 854 z "},"P":{"ha":1194,"x_min":0,"x_max":1580,"o":"m 0 0 l 568 911 l 456 1082 l 1373 1082 q 1544 985 1507 1082 q 1496 754 1580 888 q 1255 524 1412 620 q 963 427 1097 427 l 665 427 l 399 0 l 0 0 m 932 854 l 807 655 l 949 655 q 1096 751 1035 655 q 1074 854 1160 854 l 932 854 z "},"Q":{"ha":1313,"x_min":198,"x_max":1615,"o":"m 338 541 q 734 923 476 764 q 1245 1082 993 1082 q 1556 923 1497 1082 q 1477 541 1615 764 q 1195 239 1370 370 l 1196 0 l 798 0 l 796 33 q 570 0 684 0 q 258 159 317 0 q 338 541 198 317 m 1103 854 q 1001 821 1055 854 q 850 678 947 787 q 696 432 754 570 q 651 261 639 294 q 711 228 663 228 q 798 252 751 228 l 796 456 l 1000 456 q 1137 683 1099 579 q 1162 821 1175 787 q 1103 854 1150 854 z "},"R":{"ha":1194,"x_min":0,"x_max":1580,"o":"m 0 0 l 568 911 l 456 1082 l 1373 1082 q 1544 985 1507 1082 q 1496 754 1580 888 q 1288 544 1412 620 q 1081 445 1164 468 l 1082 0 l 684 0 l 682 427 l 665 427 l 399 0 l 0 0 m 932 854 l 807 655 l 949 655 q 1096 751 1035 655 q 1074 854 1160 854 l 932 854 z "},"S":{"ha":1253,"x_min":0,"x_max":1758,"o":"m 1004 1082 l 1758 1082 l 1615 854 l 1046 854 q 861 741 932 854 q 922 656 808 656 l 1164 656 q 1335 559 1298 656 q 1287 328 1371 463 q 1046 97 1203 194 q 754 0 888 0 l 0 0 l 141 228 l 711 228 q 897 342 825 228 q 836 427 949 427 l 594 427 q 423 524 460 427 q 471 754 387 620 q 712 985 555 888 q 1004 1082 869 1082 z "},"T":{"ha":1259,"x_min":342,"x_max":1758,"o":"m 533 854 l 675 1082 l 1758 1082 l 1615 854 l 1274 854 l 741 0 l 342 0 l 875 854 l 533 854 z "},"U":{"ha":1139,"x_min":0,"x_max":1644,"o":"m 178 285 l 568 911 l 456 1082 l 1074 1082 l 612 342 q 624 228 540 228 q 783 342 711 228 l 1245 1082 l 1644 1082 l 1146 285 q 684 0 968 0 l 285 0 q 178 285 0 0 z "},"V":{"ha":1535,"x_min":399,"x_max":2043,"o":"m 562 1082 l 960 1082 l 852 361 l 1644 1082 l 2043 1082 l 854 0 l 399 0 l 562 1082 z "},"W":{"ha":1986,"x_min":285,"x_max":2498,"o":"m 618 1082 l 1017 1082 l 738 361 l 1359 1082 l 1758 1082 l 1478 361 l 2100 1082 l 2498 1082 l 1481 0 l 1025 0 l 1164 450 l 741 0 l 285 0 l 618 1082 z "},"X":{"ha":1253,"x_min":0,"x_max":1758,"o":"m 684 0 l 681 225 l 399 0 l 0 0 l 680 541 l 675 1082 l 1074 1082 l 1076 857 l 1359 1082 l 1758 1082 l 1078 541 l 1082 0 l 684 0 z "},"Y":{"ha":1253,"x_min":342,"x_max":1758,"o":"m 342 0 l 662 513 l 675 1082 l 1074 1082 l 1086 857 l 1359 1082 l 1758 1082 l 1061 513 l 741 0 l 342 0 z "},"Z":{"ha":1310,"x_min":0,"x_max":1815,"o":"m 533 854 l 675 1082 l 1815 1082 l 696 228 l 1280 228 l 1139 0 l 0 0 l 1118 854 l 533 854 z "},"[":{"ha":798,"x_min":0,"x_max":1302,"o":"m 0 0 l 675 1082 l 1302 1082 l 1160 854 l 932 854 l 540 228 l 768 228 l 627 0 l 0 0 z "},"\\":{"ha":1310,"x_min":675,"x_max":1139,"o":"m 1139 0 l 741 0 l 675 1082 l 1074 1082 l 1139 0 z "},"]":{"ha":798,"x_min":0,"x_max":1302,"o":"m 627 0 l 0 0 l 141 228 l 369 228 l 761 854 l 533 854 l 675 1082 l 1302 1082 l 627 0 z "},"^":{"ha":968,"x_min":391,"x_max":1331,"o":"m 391 627 l 533 854 l 1074 1082 l 1331 854 l 1188 627 l 932 854 l 391 627 z "},"_":{"ha":1139,"x_min":-141,"x_max":1139,"o":"m -141 -228 l 0 0 l 1139 0 l 998 -228 l -141 -228 z "},"`":{"ha":1080,"x_min":342,"x_max":1028,"o":"m 342 305 q 442 117 342 176 q 685 57 543 57 q 926 117 823 57 q 1028 305 1028 176 q 961 493 1028 433 q 857 574 894 553 q 715 770 715 680 q 685 803 715 803 q 652 770 652 803 q 505 572 652 680 q 407 493 472 553 q 342 305 342 433 m 590 933 q 618 867 590 895 q 685 840 646 840 q 749 867 720 840 q 777 933 777 895 q 749 999 777 970 q 685 1028 720 1028 q 618 999 646 1028 q 590 933 590 970 m 472 293 q 491 374 472 350 q 537 397 510 397 q 585 374 566 397 q 604 293 604 350 q 585 211 604 235 q 537 187 566 187 q 491 211 510 187 q 472 293 472 235 m 488 293 q 505 224 488 245 q 537 203 521 203 q 570 224 553 203 q 587 293 587 245 q 570 360 587 339 q 537 381 553 381 q 505 360 521 381 q 488 293 488 339 m 762 293 q 781 374 762 350 q 827 397 799 397 q 874 374 854 397 q 894 293 894 350 q 874 211 894 235 q 827 187 854 187 q 781 211 799 187 q 762 293 762 235 m 779 293 q 795 224 779 245 q 827 203 811 203 q 861 224 844 203 q 878 293 878 245 q 861 360 878 339 q 827 381 844 381 q 795 360 811 381 q 779 293 779 339 z "},"a":{"ha":918,"x_min":0,"x_max":1260,"o":"m 1081 456 l 833 57 l 854 0 l 285 0 q 141 228 0 0 q 568 456 283 456 l 796 456 l 833 513 q 811 570 868 570 l 697 570 q 605 513 640 570 l 320 513 q 747 741 463 741 l 975 741 q 1081 456 1260 741 m 448 171 l 618 171 l 690 285 l 519 285 q 426 228 463 285 q 448 171 391 171 z "},"b":{"ha":895,"x_min":0,"x_max":1123,"o":"m 0 0 l 568 911 l 456 1082 l 960 1082 l 747 741 l 890 741 q 1084 626 1046 730 q 1028 370 1123 522 q 764 114 932 217 q 427 0 595 11 l 0 0 m 640 570 l 391 171 l 448 171 q 743 370 618 171 q 697 570 868 570 l 640 570 z "},"c":{"ha":918,"x_min":134,"x_max":1260,"o":"m 798 0 l 370 0 q 174 114 213 11 q 231 370 134 217 q 494 626 326 522 q 833 741 663 730 l 1260 741 l 1153 570 l 811 570 q 515 370 640 570 q 562 171 391 171 l 903 171 l 798 0 z "},"d":{"ha":903,"x_min":134,"x_max":1473,"o":"m 854 0 l 370 0 q 174 114 213 11 q 231 370 134 217 q 494 626 326 522 q 833 741 663 730 l 975 741 l 1188 1082 l 1473 1082 l 833 57 l 854 0 m 868 570 l 811 570 q 515 370 640 570 q 562 171 391 171 l 618 171 l 868 570 z "},"e":{"ha":913,"x_min":134,"x_max":1111,"o":"m 798 0 l 370 0 q 174 114 213 11 q 231 370 134 217 q 494 626 326 522 q 861 741 663 730 q 1078 642 1046 730 q 1072 456 1111 553 l 1028 370 l 975 285 l 473 285 q 562 171 433 171 l 903 171 l 798 0 m 789 456 q 750 563 836 563 q 575 456 665 563 l 789 456 z "},"f":{"ha":854,"x_min":228,"x_max":1359,"o":"m 228 0 l 583 570 l 355 570 l 463 741 l 690 741 l 726 798 q 1188 1082 903 1082 l 1359 1082 l 1252 911 l 1195 911 q 1010 798 1081 911 l 975 741 l 1203 741 l 1096 570 l 868 570 l 513 0 l 228 0 z "},"g":{"ha":913,"x_min":-171,"x_max":1267,"o":"m 1267 741 l 804 0 q 342 -285 627 -285 l -171 -285 l -65 -114 l 334 -114 q 519 0 448 -114 l 377 0 q 182 115 221 11 q 237 370 142 218 q 502 627 334 524 q 840 741 670 730 l 1267 741 m 625 171 l 875 570 l 818 570 q 522 370 647 570 q 568 171 397 171 l 625 171 z "},"h":{"ha":910,"x_min":0,"x_max":1111,"o":"m 456 1082 l 960 1082 l 747 741 l 861 741 q 1078 642 1046 730 q 1072 456 1111 553 l 1028 370 l 798 0 l 513 0 l 796 456 q 754 570 864 563 l 640 570 l 285 0 l 0 0 l 568 911 l 456 1082 z "},"i":{"ha":400,"x_min":0,"x_max":960,"o":"m 533 854 l 568 911 l 456 1082 l 960 1082 l 818 854 l 533 854 m 0 0 l 463 741 l 747 741 l 285 0 l 0 0 z "},"j":{"ha":403,"x_min":-399,"x_max":967,"o":"m 540 854 l 576 911 l 397 1082 l 967 1082 l 825 854 l 540 854 m 7 0 l 469 741 l 754 741 l 292 0 q -171 -285 114 -285 l -399 -285 l -293 -114 l -179 -114 q 7 0 -65 -114 z "},"k":{"ha":913,"x_min":0,"x_max":1260,"o":"m 0 0 l 568 911 l 448 1082 l 960 1082 l 575 467 l 975 741 l 1260 741 l 761 399 l 798 0 l 513 0 l 483 319 l 285 0 l 0 0 z "},"l":{"ha":403,"x_min":0,"x_max":960,"o":"m 0 0 l 568 911 l 448 1082 l 960 1082 l 285 0 l 0 0 z "},"m":{"ha":1196,"x_min":0,"x_max":1545,"o":"m 0 0 l 463 741 l 1032 741 q 1109 684 1089 741 l 1146 741 l 1260 741 q 1366 456 1545 741 l 1082 0 l 798 0 l 1118 513 q 1096 570 1153 570 l 1039 570 l 684 0 l 399 0 l 719 513 q 697 570 754 570 l 640 570 l 285 0 l 0 0 z "},"n":{"ha":918,"x_min":0,"x_max":1260,"o":"m 0 0 l 463 741 l 975 741 q 1081 456 1260 741 l 798 0 l 513 0 l 833 513 q 811 570 868 570 l 640 570 l 285 0 l 0 0 z "},"o":{"ha":952,"x_min":134,"x_max":1180,"o":"m 231 370 q 519 631 326 522 q 890 741 713 741 q 1122 631 1065 741 q 1085 370 1180 522 q 795 109 989 217 q 427 0 602 0 q 193 109 251 0 q 231 370 134 217 m 515 370 q 469 229 464 288 q 533 171 473 171 q 670 229 591 171 q 800 370 749 288 q 846 511 852 452 q 783 570 841 570 q 645 511 723 570 q 515 370 567 452 z "},"p":{"ha":903,"x_min":-171,"x_max":1131,"o":"m 469 741 l 897 741 q 1092 627 1053 730 q 1035 370 1131 524 q 772 115 940 218 q 434 0 604 11 l 292 0 l 114 -285 l -171 -285 l 469 741 m 397 171 l 454 171 q 750 370 625 171 q 704 570 875 570 l 647 570 l 397 171 z "},"q":{"ha":913,"x_min":142,"x_max":1267,"o":"m 1267 741 l 627 -285 l 342 -285 l 519 0 l 377 0 q 182 115 221 11 q 237 370 142 218 q 502 627 334 524 q 840 741 670 730 l 1267 741 m 625 171 l 875 570 l 818 570 q 522 370 647 570 q 568 171 397 171 l 625 171 z "},"r":{"ha":799,"x_min":0,"x_max":1146,"o":"m 0 0 l 463 741 l 747 741 l 711 684 q 1032 741 861 741 l 1146 741 l 1039 570 l 868 570 q 568 456 754 570 l 285 0 l 0 0 z "},"s":{"ha":913,"x_min":0,"x_max":1260,"o":"m 1260 741 l 1153 570 l 697 570 q 605 513 640 570 q 625 456 568 456 l 796 456 q 939 228 1081 456 q 513 0 798 0 l 0 0 l 106 171 l 562 171 q 654 228 618 171 q 633 285 690 285 l 463 285 q 320 513 178 285 q 747 741 463 741 l 1260 741 z "},"t":{"ha":854,"x_min":228,"x_max":1203,"o":"m 355 570 l 463 741 l 690 741 l 903 1082 l 1188 1082 l 975 741 l 1203 741 l 1096 570 l 868 570 l 690 285 q 732 171 618 171 l 846 171 l 741 0 l 513 0 q 406 285 228 0 l 583 570 l 355 570 z "},"u":{"ha":913,"x_min":0,"x_max":1260,"o":"m 178 285 l 463 741 l 747 741 l 391 171 l 618 171 l 975 741 l 1260 741 l 798 0 l 285 0 q 178 285 0 0 z "},"v":{"ha":917,"x_min":170,"x_max":1259,"o":"m 170 0 l 347 741 l 632 741 l 525 296 l 974 741 l 1259 741 l 511 0 l 170 0 z "},"w":{"ha":1259,"x_min":170,"x_max":1600,"o":"m 404 741 l 689 741 l 601 463 l 860 741 l 1145 741 l 1057 463 l 1316 741 l 1600 741 l 910 0 l 625 0 l 713 278 l 454 0 l 170 0 l 404 741 z "},"x":{"ha":918,"x_min":0,"x_max":1260,"o":"m 513 0 l 500 164 l 285 0 l 0 0 l 487 370 l 463 741 l 747 741 l 758 576 l 975 741 l 1260 741 l 772 370 l 798 0 l 513 0 z "},"y":{"ha":918,"x_min":-171,"x_max":1267,"o":"m 184 285 l 469 741 l 754 741 l 469 285 q 511 171 397 171 l 625 171 l 982 741 l 1267 741 l 804 0 q 342 -285 627 -285 l -171 -285 l -65 -114 l 334 -114 q 519 0 448 -114 l 292 0 q 184 285 7 0 z "},"z":{"ha":918,"x_min":0,"x_max":1260,"o":"m 355 570 l 463 741 l 1260 741 l 509 171 l 903 171 l 798 0 l 0 0 l 750 570 l 355 570 z "},"{":{"ha":1020,"x_min":114,"x_max":1558,"o":"m 220 -57 q 355 342 548 285 l 463 513 q 825 911 726 570 q 1103 1082 932 1082 l 1558 1082 l 1416 854 l 1302 854 q 1118 741 1188 854 q 825 456 975 513 l 789 399 q 726 114 868 342 q 768 0 654 0 l 882 0 l 741 -228 l 285 -228 q 220 -57 114 -228 z "},"|":{"ha":570,"x_min":-141,"x_max":1076,"o":"m -141 -228 l 677 1082 l 1076 1082 l 258 -228 l -141 -228 z "},"}":{"ha":911,"x_min":-114,"x_max":1331,"o":"m 618 -57 q 342 -228 513 -228 l -114 -228 l 27 0 l 141 0 q 327 114 255 0 q 618 399 469 342 l 654 456 q 719 741 576 513 q 675 854 789 854 l 562 854 l 704 1082 l 1160 1082 q 1223 911 1331 1082 q 1089 513 897 570 l 982 342 q 618 -57 719 285 z "},"~":{"ha":1196,"x_min":463,"x_max":1630,"o":"m 463 741 l 605 968 q 1118 968 939 1139 q 1630 968 1295 798 l 1488 741 q 975 741 1153 570 q 463 741 796 911 z "}," ":{"ha":694,"x_min":0,"x_max":0,"o":""},"¡":{"ha":694,"x_min":0,"x_max":0,"o":""},"¢":{"ha":694,"x_min":0,"x_max":0,"o":""},"£":{"ha":694,"x_min":0,"x_max":0,"o":""},"¤":{"ha":694,"x_min":0,"x_max":0,"o":""},"¥":{"ha":694,"x_min":0,"x_max":0,"o":""},"¦":{"ha":694,"x_min":0,"x_max":0,"o":""},"§":{"ha":694,"x_min":0,"x_max":0,"o":""},"¨":{"ha":694,"x_min":0,"x_max":0,"o":""},"©":{"ha":694,"x_min":0,"x_max":0,"o":""},"ª":{"ha":694,"x_min":0,"x_max":0,"o":""},"«":{"ha":694,"x_min":0,"x_max":0,"o":""},"¬":{"ha":694,"x_min":0,"x_max":0,"o":""},"­":{"ha":694,"x_min":0,"x_max":0,"o":""},"®":{"ha":694,"x_min":0,"x_max":0,"o":""},"¯":{"ha":694,"x_min":0,"x_max":0,"o":""},"°":{"ha":694,"x_min":0,"x_max":0,"o":""},"±":{"ha":694,"x_min":0,"x_max":0,"o":""},"²":{"ha":694,"x_min":0,"x_max":0,"o":""},"³":{"ha":694,"x_min":0,"x_max":0,"o":""},"´":{"ha":694,"x_min":0,"x_max":0,"o":""},"µ":{"ha":694,"x_min":0,"x_max":0,"o":""},"¶":{"ha":694,"x_min":0,"x_max":0,"o":""},"·":{"ha":694,"x_min":0,"x_max":0,"o":""},"¸":{"ha":694,"x_min":0,"x_max":0,"o":""},"¹":{"ha":694,"x_min":0,"x_max":0,"o":""},"º":{"ha":694,"x_min":0,"x_max":0,"o":""},"»":{"ha":694,"x_min":0,"x_max":0,"o":""},"¼":{"ha":694,"x_min":0,"x_max":0,"o":""},"½":{"ha":694,"x_min":0,"x_max":0,"o":""},"¾":{"ha":694,"x_min":0,"x_max":0,"o":""},"¿":{"ha":694,"x_min":0,"x_max":0,"o":""},"À":{"ha":694,"x_min":0,"x_max":0,"o":""},"Á":{"ha":694,"x_min":0,"x_max":0,"o":""},"Â":{"ha":694,"x_min":0,"x_max":0,"o":""},"Ã":{"ha":694,"x_min":0,"x_max":0,"o":""},"Ä":{"ha":694,"x_min":0,"x_max":0,"o":""},"Å":{"ha":694,"x_min":0,"x_max":0,"o":""},"Æ":{"ha":694,"x_min":0,"x_max":0,"o":""},"Ç":{"ha":694,"x_min":0,"x_max":0,"o":""},"È":{"ha":694,"x_min":0,"x_max":0,"o":""},"É":{"ha":694,"x_min":0,"x_max":0,"o":""},"Ê":{"ha":694,"x_min":0,"x_max":0,"o":""},"Ë":{"ha":694,"x_min":0,"x_max":0,"o":""},"Ì":{"ha":694,"x_min":0,"x_max":0,"o":""},"Í":{"ha":694,"x_min":0,"x_max":0,"o":""},"Î":{"ha":694,"x_min":0,"x_max":0,"o":""},"Ï":{"ha":694,"x_min":0,"x_max":0,"o":""},"Ð":{"ha":694,"x_min":0,"x_max":0,"o":""},"Ñ":{"ha":694,"x_min":0,"x_max":0,"o":""},"Ò":{"ha":694,"x_min":0,"x_max":0,"o":""},"Ó":{"ha":694,"x_min":0,"x_max":0,"o":""},"Ô":{"ha":694,"x_min":0,"x_max":0,"o":""},"Õ":{"ha":694,"x_min":0,"x_max":0,"o":""},"Ö":{"ha":694,"x_min":0,"x_max":0,"o":""},"×":{"ha":694,"x_min":0,"x_max":0,"o":""},"Ø":{"ha":694,"x_min":0,"x_max":0,"o":""},"Ù":{"ha":694,"x_min":0,"x_max":0,"o":""},"Ú":{"ha":694,"x_min":0,"x_max":0,"o":""},"Û":{"ha":694,"x_min":0,"x_max":0,"o":""},"Ü":{"ha":694,"x_min":0,"x_max":0,"o":""},"Ý":{"ha":694,"x_min":0,"x_max":0,"o":""},"Þ":{"ha":694,"x_min":0,"x_max":0,"o":""},"ß":{"ha":694,"x_min":0,"x_max":0,"o":""},"à":{"ha":694,"x_min":0,"x_max":0,"o":""},"á":{"ha":694,"x_min":0,"x_max":0,"o":""},"â":{"ha":694,"x_min":0,"x_max":0,"o":""},"ã":{"ha":694,"x_min":0,"x_max":0,"o":""},"ä":{"ha":694,"x_min":0,"x_max":0,"o":""},"å":{"ha":694,"x_min":0,"x_max":0,"o":""},"æ":{"ha":694,"x_min":0,"x_max":0,"o":""},"ç":{"ha":694,"x_min":0,"x_max":0,"o":""},"è":{"ha":694,"x_min":0,"x_max":0,"o":""},"é":{"ha":694,"x_min":0,"x_max":0,"o":""},"ê":{"ha":694,"x_min":0,"x_max":0,"o":""},"ë":{"ha":694,"x_min":0,"x_max":0,"o":""},"ì":{"ha":694,"x_min":0,"x_max":0,"o":""},"í":{"ha":694,"x_min":0,"x_max":0,"o":""},"î":{"ha":694,"x_min":0,"x_max":0,"o":""},"ï":{"ha":694,"x_min":0,"x_max":0,"o":""},"ð":{"ha":694,"x_min":0,"x_max":0,"o":""},"ñ":{"ha":694,"x_min":0,"x_max":0,"o":""},"ò":{"ha":694,"x_min":0,"x_max":0,"o":""},"ó":{"ha":694,"x_min":0,"x_max":0,"o":""},"ô":{"ha":694,"x_min":0,"x_max":0,"o":""},"õ":{"ha":694,"x_min":0,"x_max":0,"o":""},"ö":{"ha":694,"x_min":0,"x_max":0,"o":""},"÷":{"ha":694,"x_min":0,"x_max":0,"o":""},"ø":{"ha":694,"x_min":0,"x_max":0,"o":""},"ù":{"ha":694,"x_min":0,"x_max":0,"o":""},"ú":{"ha":694,"x_min":0,"x_max":0,"o":""},"û":{"ha":694,"x_min":0,"x_max":0,"o":""},"ü":{"ha":694,"x_min":0,"x_max":0,"o":""},"ý":{"ha":694,"x_min":0,"x_max":0,"o":""},"þ":{"ha":694,"x_min":0,"x_max":0,"o":""},"ÿ":{"ha":694,"x_min":0,"x_max":0,"o":""},"Œ":{"ha":694,"x_min":0,"x_max":0,"o":""},"œ":{"ha":694,"x_min":0,"x_max":0,"o":""},"Š":{"ha":694,"x_min":0,"x_max":0,"o":""},"š":{"ha":694,"x_min":0,"x_max":0,"o":""},"Ÿ":{"ha":694,"x_min":0,"x_max":0,"o":""},"Ž":{"ha":694,"x_min":0,"x_max":0,"o":""},"ž":{"ha":694,"x_min":0,"x_max":0,"o":""},"ƒ":{"ha":694,"x_min":0,"x_max":0,"o":""},"ˆ":{"ha":694,"x_min":0,"x_max":0,"o":""},"˜":{"ha":694,"x_min":0,"x_max":0,"o":""},"–":{"ha":694,"x_min":0,"x_max":0,"o":""},"—":{"ha":694,"x_min":0,"x_max":0,"o":""},"‘":{"ha":694,"x_min":0,"x_max":0,"o":""},"’":{"ha":694,"x_min":0,"x_max":0,"o":""},"‚":{"ha":694,"x_min":0,"x_max":0,"o":""},"“":{"ha":694,"x_min":0,"x_max":0,"o":""},"”":{"ha":694,"x_min":0,"x_max":0,"o":""},"„":{"ha":694,"x_min":0,"x_max":0,"o":""},"†":{"ha":694,"x_min":0,"x_max":0,"o":""},"‡":{"ha":694,"x_min":0,"x_max":0,"o":""},"•":{"ha":694,"x_min":0,"x_max":0,"o":""},"…":{"ha":694,"x_min":0,"x_max":0,"o":""},"‰":{"ha":694,"x_min":0,"x_max":0,"o":""},"‹":{"ha":694,"x_min":0,"x_max":0,"o":""},"›":{"ha":694,"x_min":0,"x_max":0,"o":""},"€":{"ha":694,"x_min":0,"x_max":0,"o":""},"™":{"ha":694,"x_min":0,"x_max":0,"o":""},"∙":{"ha":694,"x_min":0,"x_max":0,"o":""}}}
